<svg xmlns="http://www.w3.org/2000/svg" viewBox="0 0 541.06 203.98"><defs><style>.cls-1{fill:#fff;}.cls-2{fill:#fff;}</style></defs><g id="圖層_2" data-name="圖層 2"><g id="圖層_1-2" data-name="圖層 1"><path class="cls-1" d="M102.54,155.91q-32,0-53.5-22l14-16.37q17.77,17.76,39.93,17.76,13.36,0,21-5.89A18.65,18.65,0,0,0,131.48,114,21.68,21.68,0,0,0,130,105.5,16.08,16.08,0,0,0,124.3,99a61.41,61.41,0,0,0-6.89-4.39q-2.7-1.4-10.08-4.59l-21-9q-30.54-13-30.54-39.53,0-17.76,14.07-29.64T105.33,0a64.53,64.53,0,0,1,45.52,19L138.47,34.14q-15.16-13.58-33.14-13.58-11.58,0-18.46,5.29A17.07,17.07,0,0,0,80,40.12a17.41,17.41,0,0,0,1.8,8.09A17.45,17.45,0,0,0,88,54.6a64.15,64.15,0,0,0,7.08,4.19q2.7,1.3,9.29,3.89l20.55,8.78q14.78,6.41,22.76,15.77t8,25q0,18.57-14.47,31.14T102.54,155.91Z"/><rect class="cls-2" width="24.09" height="24.09" rx="12.05"/><polygon class="cls-1" points="0 35.43 24.09 35.43 24.09 155.91 0.23 155.91 0 35.43"/><path class="cls-1" d="M540.89,91.23a60.23,60.23,0,0,0-96-44V35.35H420.76l.1,54.54,0,11.63.1,54.31h23.87V95.56a36,36,0,1,1,71.94,0v60.27h24.1V99.89c.1-1.43.17-2.87.17-4.33S541,92.66,540.89,91.23Z"/><path class="cls-1" d="M372.57,35.59l0,11.91a60.31,60.31,0,0,0-84.38,12c-.47.62-.94,1.26-1.38,1.91l-.58.87c-.25.37-.5.73-.73,1.1s-.62,1-.92,1.51l-.31.51c-.35.6-.69,1.22-1,1.84l-.12.23c-.37.68-.71,1.37-1.05,2.07l0,0a60,60,0,0,0-5.93,26.09s0,.06,0,.09a36.13,36.13,0,1,1-8.26-23.11A72.07,72.07,0,0,1,280,50.56a60.23,60.23,0,0,0-76.12-3.11V35.32h-24.1l.08,57.31c-.05,1-.08,2-.08,3s0,2.13.09,3.18L180,204h23.87V143.86a60.25,60.25,0,0,0,76.1-3.08,60.87,60.87,0,0,0,8.26-8.94c.47-.62.93-1.26,1.38-1.91l.58-.87.73-1.1c.31-.5.62-1,.92-1.51l.31-.51c.35-.61.69-1.22,1-1.84l.13-.23q.54-1,1.05-2.07l0,0a60,60,0,0,0,5.93-26.09v-.09a36.11,36.11,0,1,1,8.25,23.11,71.86,71.86,0,0,1-12.07,22.1,60.22,60.22,0,0,0,76.33,2.95l0,12.33h23.86V35.59Z"/></g></g></svg>