<svg xmlns="http://www.w3.org/2000/svg" viewBox="0 0 2052.6 203.98"><defs><style>.cls-1{fill:#fff;}.cls-2{fill:#fff;}.cls-3{fill:#fff;}</style></defs><g id="圖層_2" data-name="圖層 2"><g id="圖層_1-2" data-name="圖層 1"><path class="cls-1" d="M102.54,155.91q-32,0-53.5-22l14-16.37q17.77,17.76,39.93,17.76,13.36,0,21-5.89A18.65,18.65,0,0,0,131.48,114,21.68,21.68,0,0,0,130,105.5,16.08,16.08,0,0,0,124.3,99a61.41,61.41,0,0,0-6.89-4.39q-2.7-1.4-10.08-4.59l-21-9q-30.54-13-30.54-39.53,0-17.76,14.07-29.64T105.33,0a64.53,64.53,0,0,1,45.52,19L138.47,34.14q-15.16-13.58-33.14-13.58-11.58,0-18.46,5.29A17.07,17.07,0,0,0,80,40.12a17.41,17.41,0,0,0,1.8,8.09A17.45,17.45,0,0,0,88,54.6a64.15,64.15,0,0,0,7.08,4.19q2.7,1.3,9.29,3.89l20.55,8.78q14.78,6.41,22.76,15.77t8,25q0,18.57-14.47,31.14T102.54,155.91Z"/><rect class="cls-2" width="24.09" height="24.09" rx="12.05"/><polygon class="cls-1" points="0 35.43 24.09 35.43 24.09 155.91 0.23 155.91 0 35.43"/><path class="cls-1" d="M540.89,91.23a60.23,60.23,0,0,0-96-44V35.35H420.76l.1,54.54,0,11.63.1,54.31h23.87V95.56a36,36,0,1,1,71.94,0v60.27h24.1V99.89c.1-1.43.17-2.87.17-4.33S541,92.66,540.89,91.23Z"/><path class="cls-1" d="M372.57,35.59l0,11.91a60.31,60.31,0,0,0-84.38,12c-.47.62-.94,1.26-1.38,1.91l-.58.87c-.25.37-.5.73-.73,1.1s-.62,1-.92,1.51l-.31.51c-.35.6-.69,1.22-1,1.84l-.12.23c-.37.68-.71,1.37-1.05,2.07l0,0a60,60,0,0,0-5.93,26.09s0,.06,0,.09a36.13,36.13,0,1,1-8.26-23.11A72.07,72.07,0,0,1,280,50.56a60.23,60.23,0,0,0-76.12-3.11V35.32h-24.1l.08,57.31c-.05,1-.08,2-.08,3s0,2.13.09,3.18L180,204h23.87V143.86a60.25,60.25,0,0,0,76.1-3.08,60.87,60.87,0,0,0,8.26-8.94c.47-.62.93-1.26,1.38-1.91l.58-.87.73-1.1c.31-.5.62-1,.92-1.51l.31-.51c.35-.61.69-1.22,1-1.84l.13-.23q.54-1,1.05-2.07l0,0a60,60,0,0,0,5.93-26.09v-.09a36.11,36.11,0,1,1,8.25,23.11,71.86,71.86,0,0,1-12.07,22.1,60.22,60.22,0,0,0,76.33,2.95l0,12.33h23.86V35.59Z"/><path class="cls-3" d="M591.2,81.24l-3.28-8q7.35-1.58,27.27-6.56,8-2,11.93-2.88l.92,7.08Q615.45,74.56,592,81A3.91,3.91,0,0,0,591.2,81.24Zm5.64,74.19c-.26-.26-.66-.7-1.18-1.31a46.94,46.94,0,0,0-6-6q25.29-5.24,38.41-12.58l8.78,4.19Q621.09,148.75,596.84,155.43ZM592.38,52.66V44.79h34v7.87Zm13.76,81.54V81.63H691V134.2ZM615.58,97h65.68V88.18H615.58Zm0,15.33h65.68v-9H615.58Zm0,15.47h65.68V118.6H615.58Zm86.52-44q-28.05-5-36.7-21.76A30.29,30.29,0,0,1,653.73,74q-8,4.71-21.76,7.47a24.35,24.35,0,0,0-4.59-7q15.6-2.76,23.07-8.13a24.93,24.93,0,0,0,9.31-14.16h-13.9A64.93,64.93,0,0,1,634.2,63.67a21.21,21.21,0,0,0-7.34-4.85q13.75-9.57,19.79-23.47l8.79,1.45q-2,4.06-4.46,8.12h44.83l1.57-.39,6.56,2q-6.69,12.18-13.11,18.61L683,62.36a54.12,54.12,0,0,0,8-10.1H670a25.56,25.56,0,0,0,9.57,14q9,6.83,27.52,9.57A22.66,22.66,0,0,0,702.1,83.73Zm-6.94,71.57q-12.58-6.56-36.58-14.42l8-5q25.17,8.13,39.32,14.55Z"/><path class="cls-3" d="M852.33,155.3q-35.52-8.91-49-39.59H787.18v25q3.93-.66,12.06-2,10.35-1.56,15.6-2.49l.39,8.52c-3.4.62-8.52,1.49-15.33,2.63q-25.44,4.19-35.27,5.9l-1.57-9.05q5.37-.66,15.08-2.23V115.71H761.62v-8.39h23.46V94H765.55V85.56h19.53V73.63H761.23v6.16q0,51-15.47,75.38a29.9,29.9,0,0,0-8.53-5q8.79-13.63,12.07-35a249.55,249.55,0,0,0,2.09-35.4V41.65h97.66v32H829.52V85.56h22V94h-22v13.37h27.27v8.39H812.35a57,57,0,0,0,10.49,14A145.32,145.32,0,0,0,842.5,116.5l7.34,5.11a158.2,158.2,0,0,1-21,13.24q12.18,9,29.23,12.32A26,26,0,0,0,852.33,155.3Zm-91.1-90.19h78.26V50.17H761.23Zm33,20.45h26.22V73.63H794.26Zm0,21.76h26.22V94H794.26Z"/><path class="cls-3" d="M894.28,155.43v-114h108.81V155.43h-9.57v-6H903.59v6Zm9.31-14.81h89.93V50.3H903.59ZM910.8,128l-1.31-7.35q9-1.44,35.13-6c1.84-.34,3.19-.61,4.06-.78l.4,6.81q-4.33.8-12.85,2.5Q918.14,126.72,910.8,128ZM975,134.46q-8-1.58-13.63-12.72a86.59,86.59,0,0,1-17.3,15.08,35.81,35.81,0,0,0-5.77-6.16,68.68,68.68,0,0,0,19.79-17.18q-4.46-13.1-7.21-38.67H910.8V67.47h39.46c-.53-6.11-.88-10.75-1-13.89h8.39c.17,3.14.43,7.78.79,13.89H987v7.34H959q1.69,18.36,4.85,30.15a92.45,92.45,0,0,0,9.7-24.12l8,1.71A103,103,0,0,1,967,114.66q4.46,11.15,10.61,12.06,2.49.66,4.07-13.5a19.66,19.66,0,0,0,6.29,4.33Q985.52,138.52,975,134.46Zm-59.64-26V83.07h29V108.5Zm6.81-6.16h15.08V89.23H922.2ZM979,66a45.65,45.65,0,0,0-14-9.18L969.53,52q9.69,4.45,14.15,8.92Z"/><path class="cls-3" d="M1044.51,155V41h24.78l1.18-.26,6,3.41Q1069.81,68.4,1066,79.66a52.59,52.59,0,0,1,9.31,29.11q0,11.53-4.46,15.07a9.86,9.86,0,0,1-5.9,2.36,58.24,58.24,0,0,1-7,.26,17.52,17.52,0,0,0-2-8.39,25.53,25.53,0,0,0,5.77.13A4.23,4.23,0,0,0,1065,117q2.1-1.69,2.1-9.17a47.18,47.18,0,0,0-8.92-27.4q3.54-11.15,8.13-30.54H1053V155Zm34.87-52a25.15,25.15,0,0,0-5.37-6.69,55.86,55.86,0,0,0,17.43-14.55,113.63,113.63,0,0,0-11.8-9.83q-2,2.1-3.93,3.93a62.07,62.07,0,0,0-6.55-5.11q15.19-12.58,22.15-35.13l8,1.83q-.93,3-3.28,8.78h13.37l1.57-.39,5.38,2.1q-5.38,24.12-20.19,41h41.29q-16.12-18-22.94-49.42l7.61-1.44q4.71,20.72,14,34.87a88.83,88.83,0,0,0,10.49-19.93h-17.57V45.71h21.37l1.57-.52,5.64,3.14q-6.29,18.48-16.78,31.2a56.53,56.53,0,0,0,19.4,15.34,25.29,25.29,0,0,0-5.9,7.34,59.86,59.86,0,0,1-16.25-12.58V97h-43.78v-6A69.87,69.87,0,0,1,1079.38,103Zm1.18,47.19a53.58,53.58,0,0,0-7.34-5,62,62,0,0,0,16.25-22.68l8.53,2.36A79.86,79.86,0,0,1,1080.56,150.19Zm18.62,4.59a30,30,0,0,0-3.15-8.13q6.29.14,13.63.13c1.49-.09,2.23-.74,2.23-2V116.24h-29.36v-8H1151v8h-29.89V145a12.78,12.78,0,0,1-.92,5.5,6.8,6.8,0,0,1-3.67,3Q1112.55,155,1099.18,154.78Zm-3.94-77.87q1.44-2.1,4.07-6.55a100.4,100.4,0,0,0-11.8-8.53,42.47,42.47,0,0,1-2.62,3.68c-.62.87-1.1,1.53-1.45,2A85.84,85.84,0,0,1,1095.24,76.91Zm7.08-12.32a96.87,96.87,0,0,0,4.2-11.41h-13.9c-.17.35-.48.94-.92,1.77s-.78,1.47-1,1.9A87.11,87.11,0,0,1,1102.32,64.59Zm46.67,85.6q-4.46-10.23-16.78-24l7.34-4.06a123.79,123.79,0,0,1,10,12.06,78.1,78.1,0,0,1,7.28,11.53Z"/><path class="cls-3" d="M1196.84,155.17a26.31,26.31,0,0,0-8-4.59q5.9-12.18,8.26-31.46A298.83,298.83,0,0,0,1198.54,87V40.2h36V143.5q0,7.6-4.45,9.84-3.42,1.69-17.05,1.7a29.31,29.31,0,0,0-3-9.18q10.35.27,13.11,0a2.27,2.27,0,0,0,2.49-2.49V110.6h-19Q1204.83,138.78,1196.84,155.17Zm10.35-53.75h18.49V79.53h-18.22V87Q1207.46,96.32,1207.19,101.42Zm.27-30.93h18.22V49.25h-18.22Zm34.74,19a28.73,28.73,0,0,0-7.08-6.42,30.39,30.39,0,0,0,11.93-13.5,36.49,36.49,0,0,0,2.49-14.16V39.81h41.16V72.32a6.2,6.2,0,0,0,.39,2.82c.26.39.87.59,1.84.59h6.16c1.13,0,1.88-.83,2.23-2.49a93.45,93.45,0,0,0,.78-12.19c1.58,1.31,4.28,2.49,8.13,3.54q-.52,11.53-2.75,15.6c-1.31,2.62-3.72,3.93-7.21,3.93h-8.78c-3.94,0-6.6-.81-8-2.43s-2.1-4.69-2.1-9.24V49h-22.55v6.55Q1258.84,78.61,1242.2,89.49Zm61.87,65.94a91.33,91.33,0,0,1-31.72-17A99.05,99.05,0,0,1,1241,155a23.22,23.22,0,0,0-5.64-8.39,87.23,87.23,0,0,0,29.89-14.81,98.21,98.21,0,0,1-18.75-28.58l7.74-2.49h-12.85v-9h52.7l1.7-.39L1302.1,94a86.33,86.33,0,0,1-22.41,37.89,86.71,86.71,0,0,0,30.93,15.2A27,27,0,0,0,1304.07,155.43Zm-31.59-29.89a70.82,70.82,0,0,0,17-24.77h-34A74.77,74.77,0,0,0,1272.48,125.54Z"/><path class="cls-3" d="M1356,154.78V81.24a134.4,134.4,0,0,1-13.24,16.12q-3.15-6.81-5.5-9.44a122.21,122.21,0,0,0,18.28-23.27,157.64,157.64,0,0,0,14.09-28.77l9.05,2.75A199.25,199.25,0,0,1,1365.16,67v87.83Zm19.67-59.26a47.17,47.17,0,0,0-6.3-6.42,80.14,80.14,0,0,0,14-18.35,95.65,95.65,0,0,0,9.31-21l9.44,2.36a138.3,138.3,0,0,1-11,23.21A95.8,95.8,0,0,1,1375.65,95.52ZM1381,155a30.72,30.72,0,0,0-6-7.34,47.35,47.35,0,0,0,21.11-22q5.37-11.42,6.81-29.5h-18V87.4h60.57c0,1.48,0,3-.13,4.59q-.8,30.27-1.84,41.68-1.18,12.47-3.67,15.6a10.66,10.66,0,0,1-8.26,4.33,140.37,140.37,0,0,1-14.94,0,18.76,18.76,0,0,0-2.76-9.57q5.77.53,13.11.52a5.18,5.18,0,0,0,4.2-1.57q1.83-2.23,2.75-12.45,1.05-10.48,1.57-34.35h-22.94q-2.1,20.44-8.39,33.56A56.08,56.08,0,0,1,1381,155Zm73.67-61.74a67.72,67.72,0,0,1-15.86-19.4,101.7,101.7,0,0,1-10.09-26.09h-28.06V39h35.53a92.22,92.22,0,0,0,9.57,27.27Q1452.73,79,1462,85.43A35.39,35.39,0,0,0,1454.69,93.3Z"/><path class="cls-3" d="M1518.8,155V91.85a104.26,104.26,0,0,1-21.9,20.72,34.14,34.14,0,0,0-6.16-7.48q22.15-14.94,36-43.65h-32.9V52.26h37q3.54-9,5.77-16.91l9.7,2.36c-.09.27-.22.66-.4,1.18q-2.88,9-4.72,13.37h66.73v9.18h-70.53q-4.71,9.7-8,15.21h63.19v66.2a15.56,15.56,0,0,1-1.18,6.81,7.44,7.44,0,0,1-4.33,3.54q-4.71,1.71-22.81,1.71a31.07,31.07,0,0,0-3.14-9.57q7.33.39,17.43.26H1580c2-.09,3-1,3-2.75V129.22h-54.66V155Zm9.57-56.37H1583V85.43h-54.66Zm0,22.16H1583V107.19h-54.66Z"/><path class="cls-3" d="M1646.74,155V41h32.12l1.57-.39,6.42,3.93a366.38,366.38,0,0,1-14.42,34.61q13,13.11,13,28.18.27,11.42-5.37,15.08a17.84,17.84,0,0,1-7.34,2.49,63.47,63.47,0,0,1-9.7.13,18.72,18.72,0,0,0-2.5-8.91,47,47,0,0,0,8.53.26,10.8,10.8,0,0,0,4.58-1.18q3-2,3-8.92,0-13-13.11-25.95,4.59-10.23,11.67-30.41h-19.27V155Zm108.28-.39q-27.13-13.9-37.49-55.72h-14.16v40.38q12.2-2.35,24.91-5l.65,8.39q-10.35,2.35-30.93,6.94l-15.6,3.54-3.15-9.43c.87-.18,2.27-.44,4.19-.79q6.69-1.3,10.49-2V41.12h58.73V98.93h-26.74a89,89,0,0,0,7.21,18.88,147.17,147.17,0,0,0,17.43-15.73l7.61,5.37a171.76,171.76,0,0,1-21.11,17.18q9.57,15.33,24.38,22A26.12,26.12,0,0,0,1755,154.65Zm-51.65-88.88H1743v-16h-39.59Zm0,24.51H1743V74h-39.59Z"/><path class="cls-3" d="M1799.72,98a54.7,54.7,0,0,0-7.73-6.69,87.42,87.42,0,0,0,17-17,94.51,94.51,0,0,0,11.8-19.67l10.49,3a123,123,0,0,1-13.64,21.89A100.69,100.69,0,0,1,1799.72,98Zm99.5,57.81a104.1,104.1,0,0,0-6.16-10.75q-43.79,2.22-93.21,4.45l-1.18-10.09q4.33-.13,14.29-.52c1.75-.09,3.1-.14,4.07-.14a304.11,304.11,0,0,0,13.5-28q6.81-15.86,11.27-29.1L1853,84.38a557.76,557.76,0,0,1-25,54q19.92-.78,58.86-2.49a278.63,278.63,0,0,0-19.14-24.64l8.91-4.2q9.32,10.36,18.22,22.42a193.32,193.32,0,0,1,13.9,21.1Zm5-59.78a110.89,110.89,0,0,1-18.35-20.19,153.3,153.3,0,0,1-15.08-25.17h-41.16V41.12h48a124.58,124.58,0,0,0,15.34,27.07q9.71,13.19,19.92,20.91A35,35,0,0,0,1904.2,96.05Z"/><path class="cls-3" d="M2022.32,154.25a28.69,28.69,0,0,0-3.41-10.48q14.8.39,20.71.13a4,4,0,0,0,2.49-.79,3.54,3.54,0,0,0,.66-2.49V53.18h-94.26v-9.3H2052.6v96.74a18.38,18.38,0,0,1-1.31,7.8,8.29,8.29,0,0,1-4.59,4Q2041.72,154.25,2022.32,154.25ZM1949.43,75.6V66.82h78.39V75.6Zm8.26,65.28V89.63h61.22v41.68h-51.65v9.57Zm9.57-18.22h42.08V98.28h-42.08Z"/></g></g></svg>